# xmcd
#
# Track frame offsets:
# 150
# 25064
# 48696
# 65891
# 90289
# 116833
# 140646
# 163748
#
# Disc length: 2424 seconds
#
#
# Revision: 0
# Processed by: cddbd v1.5.2PL0 Copyright (c) Steve Scherf et al.
# Submitted via: FreeRIP 2.945 
#
DISCID=71097608
DTITLE=One Way - Wrap Your Body
DYEAR=1900
DGENRE=Soul
TTITLE0=Let's Talk
TTITLE1=Wrap Your Body
TTITLE2=Believe In Me
TTITLE3=Serving It
TTITLE4=Don't Give Up On Love
TTITLE5=More Than Friends, Less Than Lovers
TTITLE6=If Knew
TTITLE7=Condemned
EXTD=
EXTT0=
EXTT1=
EXTT2=
EXTT3=
EXTT4=
EXTT5=
EXTT6=
EXTT7=
PLAYORDER=
